<?xml version="1.0" standalone="no"?>
<!DOCTYPE svg PUBLIC "-//W3C//DTD SVG 20010904//EN"
 "http://www.w3.org/TR/2001/REC-SVG-20010904/DTD/svg10.dtd">
<svg version="1.0" xmlns="http://www.w3.org/2000/svg"
 width="1105.000000pt" height="1105.000000pt" viewBox="0 0 1105.000000 1105.000000"
 preserveAspectRatio="xMidYMid meet">
<metadata>
Created by potrace 1.14, written by Peter Selinger 2001-2017
</metadata>
<g transform="translate(0.000000,1105.000000) scale(0.100000,-0.100000)"
fill="#000000" stroke="none">
<path d="M5133 9520 c-54 -11 -126 -43 -178 -78 -22 -15 -151 -138 -286 -274
-136 -137 -251 -248 -256 -248 -10 0 -121 -116 -168 -175 -16 -21 -37 -45 -45
-55 -8 -9 -26 -29 -40 -45 -14 -15 -19 -25 -13 -21 9 5 11 2 7 -8 -3 -8 -12
-17 -20 -20 -8 -3 -14 -15 -14 -26 0 -11 -5 -20 -11 -20 -5 0 -7 -4 -4 -10 3
-5 1 -10 -4 -10 -6 0 -11 -7 -11 -15 0 -8 -4 -15 -10 -15 -5 0 -10 -9 -10 -20
0 -11 -4 -20 -10 -20 -5 0 -10 -11 -10 -25 0 -14 -4 -25 -9 -25 -11 0 -32 -56
-24 -64 4 -3 1 -6 -5 -6 -7 0 -11 -3 -11 -7 1 -5 0 -11 -1 -15 -1 -5 -4 -12
-5 -18 -1 -5 -4 -12 -5 -15 -1 -3 -4 -9 -5 -15 -1 -5 -3 -11 -4 -12 -2 -2 -4
-14 -7 -28 -2 -14 -7 -32 -11 -40 -8 -19 -13 -39 -18 -65 -2 -11 -4 -20 -5
-20 -2 0 -4 -11 -6 -25 -2 -14 -6 -41 -9 -60 -16 -100 -18 -135 -17 -250 2
-113 5 -166 15 -240 2 -14 5 -27 6 -30 3 -7 12 -41 16 -65 2 -11 4 -22 5 -25
1 -3 2 -9 1 -14 -1 -4 4 -14 10 -22 6 -8 8 -14 4 -14 -4 0 -2 -7 5 -15 7 -8 9
-15 4 -15 -4 0 -3 -5 3 -11 6 -6 9 -18 6 -25 -3 -8 1 -14 8 -14 7 0 9 -3 6 -6
-3 -4 0 -16 8 -28 8 -11 15 -30 15 -43 0 -12 7 -28 15 -36 8 -8 11 -17 8 -21
-4 -3 -1 -6 5 -6 6 0 16 -16 23 -35 7 -19 16 -35 19 -35 4 0 15 -18 26 -40 10
-22 22 -40 27 -40 4 0 7 -6 7 -14 0 -8 7 -16 15 -20 8 -3 15 -12 15 -20 0 -7
11 -21 25 -30 14 -9 24 -20 22 -24 -3 -11 95 -112 104 -106 4 2 17 -9 29 -26
12 -17 25 -28 30 -25 5 3 14 -3 19 -14 6 -10 22 -22 36 -25 14 -4 25 -11 25
-17 0 -6 5 -7 10 -4 6 3 10 1 10 -4 0 -6 7 -11 15 -11 8 0 15 -5 15 -11 0 -5
4 -8 9 -4 5 3 15 0 23 -7 7 -7 20 -14 28 -16 8 -2 17 -8 20 -13 3 -4 15 -10
25 -12 11 -1 26 -6 33 -10 6 -5 12 -5 12 0 0 4 4 2 9 -5 4 -7 21 -15 37 -17
16 -2 29 -5 29 -6 0 -1 9 -3 20 -5 11 -1 31 -6 45 -9 61 -16 264 -23 345 -11
22 3 60 8 85 12 25 3 49 10 55 15 5 5 18 9 30 9 12 0 26 5 33 12 7 7 12 8 12
4 0 -5 6 -3 14 3 8 7 27 14 43 17 15 3 30 9 31 15 2 5 8 7 13 3 5 -3 9 0 9 6
0 6 5 8 10 5 6 -3 10 -2 10 3 0 5 15 15 33 23 17 7 46 23 63 36 17 13 36 23
42 23 7 0 12 4 12 8 0 4 15 16 33 27 17 10 40 29 50 42 10 13 22 21 26 19 7
-5 61 52 164 168 15 17 34 38 42 47 8 9 15 20 15 26 0 6 7 14 16 17 8 3 12 10
9 16 -3 5 -1 10 4 10 6 0 11 6 11 14 0 8 7 16 15 20 8 3 15 14 15 25 0 10 7
21 15 25 8 3 15 15 15 26 0 11 5 20 10 20 6 0 10 9 10 20 0 11 5 20 10 20 6 0
10 9 10 19 0 11 4 21 10 23 5 2 11 14 14 28 2 14 5 27 6 30 2 3 2 8 1 13 0 4
3 7 9 7 6 0 9 3 9 8 -1 4 -1 9 1 12 1 3 3 16 6 29 2 14 9 30 14 36 5 7 7 15 3
18 -3 4 -1 7 5 7 6 0 11 8 11 18 0 20 3 35 19 83 7 20 12 41 11 45 -1 5 1 20
5 34 17 62 25 361 12 455 -4 28 -7 57 -7 65 -1 8 -3 22 -7 30 -5 15 -8 27 -16
73 -2 12 -4 22 -5 22 -2 0 -4 11 -7 25 -2 14 -7 32 -11 40 -3 8 -7 18 -7 22
-1 3 -4 10 -8 14 -5 4 -8 18 -8 31 0 12 -5 23 -11 23 -5 0 -7 5 -4 10 3 6 1
10 -4 10 -6 0 -10 3 -9 8 1 4 -5 21 -15 38 -9 17 -13 34 -10 38 4 3 1 6 -6 6
-7 0 -9 5 -6 10 3 6 1 10 -5 10 -6 0 -8 5 -5 10 3 6 1 10 -5 10 -6 0 -9 4 -6
9 3 5 -1 12 -10 15 -8 3 -12 10 -9 16 3 5 1 10 -5 10 -6 0 -9 4 -6 9 3 5 -1
12 -10 15 -8 3 -13 10 -10 15 3 5 -1 12 -10 15 -8 3 -13 10 -9 15 3 6 -4 15
-15 21 -11 6 -18 15 -15 20 3 5 -5 16 -17 24 -12 9 -19 16 -15 16 4 0 -8 16
-28 35 -19 20 -35 42 -35 50 0 8 -4 15 -10 15 -5 0 -12 11 -16 25 -3 14 -10
25 -14 25 -4 0 -11 11 -14 25 -4 14 -11 25 -16 25 -6 0 -10 6 -10 14 0 8 -6
21 -14 28 -7 8 -17 24 -20 36 -4 12 -12 22 -17 22 -5 0 -9 6 -9 14 0 8 -6 21
-14 28 -7 8 -17 24 -20 36 -4 12 -12 22 -17 22 -5 0 -9 5 -9 11 0 6 -13 31
-30 56 -16 24 -30 48 -30 54 0 5 -4 9 -10 9 -5 0 -10 6 -10 13 0 6 -12 20 -28
29 -15 10 -48 33 -75 52 -72 53 -148 77 -252 81 -49 2 -109 0 -132 -5z"/>
<path d="M7609 8746 c-2 -2 -20 -6 -39 -7 -19 -2 -66 -19 -103 -37 -69 -33
-87 -49 -274 -242 -96 -100 -184 -180 -238 -217 -50 -34 -60 -42 -91 -73 -13
-14 -28 -25 -33 -25 -6 0 -37 -29 -71 -65 -33 -36 -69 -74 -80 -86 -11 -12
-20 -24 -20 -27 0 -3 -11 -17 -25 -31 -14 -14 -25 -32 -25 -41 0 -8 -4 -15
-10 -15 -5 0 -10 -7 -10 -15 0 -8 -5 -15 -11 -15 -5 0 -7 -4 -4 -10 3 -5 1
-10 -4 -10 -6 0 -11 -7 -11 -15 0 -8 -4 -15 -10 -15 -5 0 -9 -3 -8 -7 1 -5 -5
-19 -14 -33 -9 -14 -18 -32 -20 -40 -2 -8 -9 -21 -16 -28 -7 -8 -10 -18 -7
-23 4 -5 1 -9 -4 -9 -6 0 -10 -3 -10 -7 1 -5 0 -11 -1 -15 -1 -5 -3 -11 -5
-15 -14 -52 -19 -63 -27 -63 -6 0 -8 -6 -5 -14 3 -8 3 -17 -1 -21 -4 -4 -7
-10 -8 -13 0 -4 -4 -14 -7 -22 -4 -8 -9 -26 -11 -40 -3 -14 -5 -25 -7 -25 -1
0 -3 -11 -4 -25 -2 -14 -6 -36 -10 -50 -14 -53 -27 -190 -26 -280 1 -114 7
-182 25 -275 4 -16 8 -39 10 -50 2 -11 4 -20 5 -20 2 0 4 -11 7 -25 2 -14 7
-32 11 -40 3 -8 7 -18 8 -22 2 -5 3 -9 4 -10 2 -2 5 -14 7 -28 2 -13 10 -28
17 -32 6 -4 9 -8 4 -8 -4 0 6 -24 23 -53 16 -30 27 -57 23 -60 -3 -4 -1 -7 6
-7 7 0 10 -4 6 -10 -3 -5 2 -18 12 -28 10 -10 19 -25 21 -33 2 -8 10 -19 18
-26 9 -6 15 -13 14 -15 -4 -11 14 -37 23 -31 5 3 7 1 3 -5 -3 -6 21 -36 53
-68 33 -32 59 -62 58 -68 -1 -6 3 -10 10 -9 7 2 24 -13 39 -32 14 -19 30 -32
35 -30 4 3 13 -4 19 -15 6 -11 15 -18 21 -15 5 4 9 1 9 -4 0 -6 6 -11 14 -11
8 0 17 -7 20 -16 3 -8 10 -12 16 -9 5 3 10 2 10 -4 0 -6 11 -13 25 -17 14 -3
25 -10 25 -16 0 -5 5 -6 10 -3 6 3 10 1 10 -5 0 -6 4 -9 9 -5 5 3 16 -2 24
-10 9 -8 26 -17 39 -19 13 -3 24 -5 26 -7 1 -1 7 -3 12 -4 6 -1 13 -4 18 -5 4
-1 10 -2 15 -1 4 0 7 -4 7 -10 0 -6 7 -8 16 -5 9 3 21 3 27 -1 19 -12 57 -19
157 -29 88 -9 180 -5 265 11 17 3 39 7 50 9 11 2 21 5 23 6 1 1 6 3 11 4 5 0
12 4 16 8 4 4 13 4 21 1 8 -3 14 0 14 6 0 6 7 8 15 5 8 -4 15 -1 15 5 0 6 3
10 8 9 4 -1 17 3 30 10 12 7 22 10 22 7 0 -7 124 58 128 68 2 4 10 7 18 7 8 0
14 5 14 10 0 6 7 10 15 10 8 0 15 5 15 10 0 6 6 10 14 10 8 0 17 7 20 16 4 9
9 14 13 11 3 -4 14 5 25 18 10 14 23 24 27 22 10 -3 201 189 201 203 0 11 3
16 45 63 14 15 25 35 25 43 0 7 5 14 12 14 6 0 9 3 5 6 -3 3 3 15 13 27 11 11
17 24 14 29 -3 4 0 8 6 8 6 0 8 5 5 10 -3 6 -1 10 5 10 6 0 8 5 5 10 -3 6 -1
10 5 10 6 0 8 5 5 10 -3 6 -1 10 5 10 6 0 9 4 5 9 -3 5 1 16 10 24 8 8 17 30
20 47 3 18 11 42 18 54 6 11 12 23 12 26 1 3 7 18 14 34 6 16 9 31 6 34 -2 3
0 11 6 18 6 7 13 28 15 46 1 18 6 44 10 58 3 14 7 36 8 50 1 14 4 30 8 35 15
24 13 379 -2 405 -3 5 -8 40 -11 75 -1 11 -5 25 -9 30 -3 6 -7 23 -8 39 -1 16
-7 35 -13 42 -6 8 -8 14 -4 14 4 0 2 7 -5 15 -7 8 -9 15 -5 15 4 0 2 7 -5 15
-7 8 -9 15 -5 15 4 0 2 7 -5 15 -7 8 -10 15 -6 15 4 0 -1 15 -11 33 -9 17 -16
35 -15 40 1 4 -3 7 -9 7 -5 0 -7 5 -4 10 3 6 1 10 -5 10 -6 0 -8 5 -5 10 3 6
1 10 -5 10 -6 0 -8 5 -5 10 3 6 1 10 -5 10 -6 0 -8 5 -5 10 3 6 2 10 -4 10 -6
0 -13 11 -17 25 -3 14 -10 25 -15 25 -5 0 -9 7 -9 15 0 8 -4 15 -10 15 -5 0
-10 7 -10 15 0 8 -4 15 -10 15 -5 0 -10 6 -10 14 0 8 -7 16 -15 20 -18 6 -162
291 -182 361 -53 176 -209 322 -382 355 -53 10 -164 14 -172 6z"/>
<path d="M2771 8199 c-86 -17 -169 -65 -252 -146 -44 -43 -93 -89 -110 -103
-60 -51 -90 -76 -119 -100 -17 -14 -43 -36 -60 -50 -53 -46 -59 -50 -69 -50
-5 0 -12 -7 -15 -16 -3 -8 -10 -12 -16 -9 -6 3 -13 -1 -16 -9 -3 -9 -10 -14
-14 -11 -5 3 -13 -3 -19 -12 -6 -10 -11 -14 -11 -9 0 5 -28 -19 -63 -53 -35
-34 -73 -69 -86 -77 -31 -22 -181 -204 -181 -221 0 -7 -4 -13 -10 -13 -5 0
-18 -19 -29 -42 -20 -42 -41 -78 -51 -88 -3 -3 -6 -12 -8 -20 -2 -8 -8 -16
-13 -18 -5 -2 -9 -12 -9 -22 0 -10 -5 -20 -10 -22 -6 -2 -12 -13 -13 -26 0
-12 -5 -22 -9 -22 -4 0 -7 -3 -7 -7 1 -5 0 -11 -1 -15 -1 -5 -4 -12 -5 -18 -1
-5 -4 -12 -5 -15 -1 -3 -4 -9 -5 -15 -1 -5 -4 -12 -5 -15 -1 -3 -4 -9 -5 -15
-1 -5 -3 -11 -4 -12 -2 -2 -4 -14 -7 -28 -2 -14 -7 -32 -11 -40 -8 -18 -8 -19
-17 -52 -4 -15 -10 -42 -12 -60 -2 -18 -6 -46 -9 -63 -7 -37 -17 -167 -16
-220 0 -52 8 -169 11 -175 4 -6 9 -44 12 -82 1 -16 5 -28 8 -28 4 0 7 -17 8
-37 1 -20 7 -40 13 -43 6 -4 10 -11 9 -16 -3 -22 12 -74 22 -74 6 0 8 -3 5 -7
-4 -3 -3 -11 1 -17 5 -6 14 -30 22 -53 7 -24 16 -43 20 -43 4 0 14 -15 21 -32
7 -18 19 -39 26 -46 7 -7 13 -20 13 -28 0 -8 5 -14 10 -14 6 0 10 -6 10 -14 0
-8 7 -16 15 -20 8 -3 15 -11 15 -17 0 -7 8 -18 18 -25 9 -7 17 -17 17 -22 0
-11 101 -109 156 -152 17 -14 39 -32 48 -41 9 -9 26 -20 39 -23 12 -4 22 -12
22 -17 0 -6 5 -7 10 -4 6 3 10 1 10 -6 0 -7 3 -10 6 -6 4 3 13 -1 21 -9 8 -8
19 -12 24 -9 5 4 9 1 9 -5 0 -6 4 -9 9 -5 5 3 16 -2 24 -10 9 -8 26 -17 39
-19 13 -3 25 -5 28 -6 3 -2 8 -2 13 -1 4 0 7 -4 7 -10 0 -6 6 -9 13 -6 6 2 35
-3 62 -10 28 -8 64 -17 80 -20 40 -6 282 -6 320 1 17 2 50 8 75 11 25 4 48 11
51 17 4 6 11 8 17 4 6 -3 13 -2 17 4 3 5 16 10 29 10 12 0 27 5 33 11 6 6 17
11 24 13 35 6 89 29 89 37 0 6 5 7 10 4 6 -3 10 -1 10 5 0 6 5 8 10 5 6 -3 10
-2 10 4 0 6 11 13 25 17 14 3 25 10 25 15 0 5 5 9 11 9 6 0 28 14 49 30 21 17
41 30 45 30 4 0 14 8 21 18 7 9 16 17 21 17 5 0 21 10 37 23 16 12 25 22 21
22 -4 0 16 18 44 40 28 22 51 45 51 50 0 5 13 24 30 42 56 62 65 73 65 80 0 4
9 14 20 23 11 9 13 13 5 9 -15 -7 3 17 43 58 10 10 15 23 12 27 -2 5 2 12 11
15 8 3 13 10 10 15 -4 5 0 16 8 24 8 8 12 17 9 21 -4 3 0 6 7 6 7 0 11 3 7 6
-3 4 1 13 9 21 8 8 12 19 9 24 -4 5 -1 9 5 9 6 0 9 4 5 9 -3 5 1 15 8 23 17
16 37 74 30 82 -4 3 -1 6 5 6 7 0 11 3 10 8 -1 4 4 21 11 37 7 17 14 39 15 50
1 12 5 26 9 32 3 5 9 28 12 49 10 67 12 79 15 82 1 1 4 14 6 30 2 15 6 50 10
77 13 103 9 249 -11 375 -3 19 -7 46 -9 60 -2 14 -5 27 -6 30 -1 3 -3 10 -5
15 -1 6 -3 12 -4 15 -2 3 -5 18 -7 35 -3 16 -11 33 -17 37 -6 4 -8 10 -4 14 4
4 2 13 -4 20 -5 7 -12 25 -15 41 -3 15 -9 30 -15 31 -5 2 -7 8 -3 13 3 5 0 9
-5 9 -6 0 -10 3 -9 8 4 12 -24 72 -34 72 -5 0 -6 5 -3 10 3 6 1 10 -5 10 -6 0
-9 4 -6 8 5 9 -34 74 -66 107 -47 50 -67 76 -73 95 -3 11 -10 20 -15 20 -4 0
-11 11 -14 25 -4 14 -11 25 -17 25 -6 0 -7 5 -4 10 3 6 2 10 -3 10 -6 0 -13
11 -16 25 -4 14 -11 25 -17 25 -6 0 -7 5 -4 10 3 6 1 10 -4 10 -6 0 -11 6 -11
14 0 8 -7 21 -15 30 -9 8 -16 19 -17 23 -1 15 -10 38 -39 101 -39 86 -144 191
-231 232 -101 47 -216 61 -327 39z"/>
<path d="M8791 6359 c-24 -5 -72 -22 -107 -38 -63 -30 -87 -51 -256 -226 -36
-39 -97 -97 -134 -130 -37 -33 -91 -82 -120 -110 -29 -27 -83 -77 -120 -110
-119 -106 -258 -255 -239 -255 6 0 -5 -15 -37 -50 -9 -10 -14 -21 -11 -24 4
-3 1 -6 -5 -6 -7 0 -12 -7 -12 -15 0 -8 -4 -15 -10 -15 -5 0 -10 -7 -10 -15 0
-8 -5 -15 -11 -15 -5 0 -8 -4 -5 -9 4 -5 2 -11 -3 -13 -5 -1 -11 -10 -13 -18
-2 -8 -9 -21 -16 -28 -7 -8 -10 -18 -7 -23 4 -5 1 -9 -5 -9 -6 0 -8 -4 -5 -10
3 -5 1 -10 -5 -10 -6 0 -9 -4 -6 -9 4 -5 2 -11 -3 -13 -6 -1 -13 -19 -16 -38
-3 -19 -11 -38 -18 -42 -7 -4 -8 -8 -3 -8 5 0 4 -6 -2 -12 -6 -7 -11 -17 -12
-23 -1 -5 -6 -21 -11 -34 -5 -13 -7 -26 -4 -29 2 -3 0 -11 -6 -18 -5 -7 -11
-27 -12 -46 -1 -18 -6 -38 -10 -44 -27 -44 -25 -522 3 -573 5 -10 7 -21 4 -24
-3 -3 -2 -12 2 -19 5 -7 10 -19 11 -25 7 -31 12 -48 13 -48 1 0 3 -11 6 -24 2
-14 9 -30 15 -38 6 -7 8 -13 4 -13 -4 0 -2 -6 4 -13 6 -8 8 -17 4 -20 -3 -4 0
-7 7 -7 7 0 10 -3 7 -6 -3 -4 -1 -16 5 -28 7 -11 11 -24 10 -28 -1 -5 3 -8 9
-8 5 0 7 -4 4 -10 -3 -5 -1 -10 5 -10 6 0 8 -4 5 -10 -3 -5 -1 -10 5 -10 6 0
8 -4 5 -10 -3 -5 -1 -10 5 -10 6 0 8 -4 5 -10 -3 -5 -1 -10 4 -10 6 0 11 -7
11 -15 0 -8 5 -15 11 -15 5 0 7 -4 4 -10 -3 -5 -1 -10 4 -10 6 0 11 -6 11 -14
0 -8 7 -17 16 -20 8 -3 13 -10 10 -15 -3 -5 1 -12 10 -15 8 -3 13 -10 10 -15
-3 -5 5 -16 19 -25 14 -9 24 -20 23 -24 -2 -4 35 -45 82 -92 46 -47 80 -78 74
-70 -7 13 -7 13 6 0 8 -9 23 -19 33 -23 9 -3 17 -11 17 -17 0 -5 7 -10 15 -10
8 0 15 -5 15 -10 0 -10 48 -35 63 -32 4 1 7 -2 7 -8 0 -5 6 -10 14 -10 8 0 16
-5 18 -10 2 -6 13 -12 26 -13 12 0 22 -5 22 -9 0 -4 3 -7 8 -6 4 1 17 -3 28
-10 12 -6 24 -8 28 -5 3 3 6 2 6 -4 0 -6 9 -9 20 -6 12 3 20 0 20 -7 0 -6 6
-10 13 -7 6 2 26 0 42 -5 45 -15 78 -18 218 -22 71 -2 130 0 133 6 3 5 14 6
25 3 10 -4 24 -3 31 2 14 8 35 14 58 15 8 0 20 4 25 9 6 4 26 11 45 14 19 3
37 11 41 16 3 6 9 10 13 10 3 -1 19 5 35 13 16 9 31 12 35 9 3 -4 6 -1 6 6 0
7 4 10 10 6 5 -3 18 3 29 14 11 11 22 17 25 14 3 -4 6 -1 6 6 0 7 5 9 10 6 6
-3 13 1 16 9 3 9 10 13 15 10 5 -3 12 1 15 9 3 9 17 18 30 21 14 4 23 10 20
14 -2 4 11 18 30 31 41 28 286 316 277 325 -4 3 -1 6 6 6 7 0 9 5 5 13 -4 6
-4 9 1 5 13 -12 35 12 35 39 0 32 46 170 71 209 10 17 19 39 19 48 0 9 4 16 9
16 6 0 10 8 9 18 0 9 3 28 7 42 4 14 8 34 10 45 2 11 4 20 5 20 2 0 8 41 16
110 8 83 8 270 -1 330 -4 28 -8 61 -10 75 -1 14 -3 27 -5 30 -4 7 -11 52 -11
73 0 9 -5 17 -11 17 -5 0 -8 7 -5 15 4 8 2 17 -3 20 -5 3 -7 12 -3 20 3 8 0
15 -6 15 -6 0 -11 14 -11 30 0 17 -5 30 -12 30 -6 0 -8 3 -5 7 4 3 2 12 -3 19
-6 6 -12 20 -14 30 -3 11 -18 54 -34 97 -17 42 -28 77 -25 77 3 0 0 7 -7 15
-7 8 -9 15 -5 15 4 0 2 7 -5 15 -7 8 -9 15 -5 15 4 0 2 7 -5 15 -7 8 -9 15 -5
15 4 0 2 7 -5 15 -7 8 -10 15 -7 15 4 0 -5 29 -18 65 -14 36 -22 65 -19 65 4
0 1 7 -6 15 -7 8 -9 15 -5 15 4 0 2 7 -5 15 -7 8 -10 15 -6 15 3 0 -5 29 -19
65 -13 36 -22 65 -18 65 3 0 0 7 -7 15 -7 8 -9 15 -5 15 4 0 1 7 -6 17 -8 9
-13 18 -11 20 1 1 2 4 1 6 0 1 -2 12 -5 24 -17 93 -79 198 -162 274 -117 107
-278 150 -441 118z"/>
<path d="M5274 6271 c-3 -3 -22 -7 -42 -8 -40 -3 -86 -8 -142 -17 -19 -3 -42
-7 -50 -7 -8 -1 -20 -6 -26 -11 -6 -4 -18 -6 -27 -2 -8 3 -18 1 -21 -5 -4 -6
-13 -8 -20 -5 -8 3 -17 0 -21 -5 -3 -6 -11 -9 -16 -5 -5 3 -15 2 -22 -3 -7 -5
-25 -10 -42 -12 -16 -2 -32 -6 -35 -10 -3 -3 -16 -8 -30 -9 -14 -2 -31 -9 -37
-14 -7 -6 -13 -7 -13 -3 0 4 -7 2 -15 -5 -8 -7 -15 -9 -15 -4 0 4 -5 3 -11 -3
-6 -6 -18 -9 -25 -6 -8 3 -14 1 -14 -5 0 -5 -10 -10 -22 -10 -13 0 -36 -6 -53
-13 -16 -6 -37 -13 -46 -15 -9 -2 -29 -9 -45 -15 -16 -7 -32 -13 -36 -14 -5
-2 -10 -4 -13 -5 -3 -1 -9 -4 -15 -5 -5 -1 -13 -4 -17 -5 -5 -1 -11 -2 -15 -1
-5 0 -8 -4 -8 -10 0 -5 -4 -7 -10 -4 -5 3 -10 2 -10 -3 0 -5 -25 -20 -55 -32
-30 -12 -55 -27 -55 -32 0 -5 -5 -6 -10 -3 -6 3 -13 -1 -16 -9 -3 -9 -10 -13
-15 -11 -4 3 -17 -3 -28 -14 -11 -11 -22 -17 -25 -14 -3 3 -8 -2 -12 -11 -3
-9 -10 -13 -15 -10 -5 3 -12 -2 -15 -10 -3 -9 -10 -13 -15 -10 -5 3 -12 -2
-15 -10 -3 -9 -10 -13 -15 -10 -5 3 -12 -2 -15 -10 -3 -9 -9 -14 -13 -12 -3 2
-23 -10 -43 -27 -19 -18 -46 -39 -58 -47 -13 -8 -33 -26 -46 -40 -13 -14 -24
-21 -24 -17 0 5 -12 -5 -26 -20 -14 -15 -22 -21 -19 -13 4 8 -9 -1 -28 -20
-80 -79 -109 -104 -102 -90 3 8 -17 -10 -45 -40 -28 -30 -56 -55 -62 -55 -5 0
-39 -31 -75 -70 -36 -38 -61 -63 -57 -54 5 8 0 4 -11 -9 -42 -52 -56 -66 -50
-52 3 8 -7 0 -22 -19 -45 -54 -77 -88 -62 -66 14 20 13 20 -9 1 -12 -11 -20
-21 -17 -24 2 -3 -29 -37 -70 -76 -41 -39 -75 -74 -75 -79 0 -4 -28 -35 -62
-69 -35 -33 -52 -53 -38 -43 14 10 0 -7 -30 -37 -30 -31 -66 -70 -80 -88 -14
-17 -37 -43 -52 -58 -16 -15 -28 -31 -28 -37 0 -6 -12 -23 -27 -37 -44 -42
-68 -72 -66 -80 2 -4 -6 -12 -17 -18 -11 -6 -18 -15 -15 -19 3 -5 -2 -11 -10
-15 -8 -3 -15 -12 -15 -20 0 -7 -7 -16 -15 -20 -8 -3 -15 -12 -15 -21 0 -8 -5
-15 -11 -15 -5 0 -15 -13 -20 -30 -6 -16 -15 -30 -21 -30 -5 0 -6 -4 -3 -10 3
-5 1 -10 -4 -10 -6 0 -11 -7 -11 -15 0 -8 -5 -15 -11 -15 -5 0 -7 -4 -4 -10 3
-5 1 -10 -5 -10 -6 0 -8 -4 -5 -10 3 -5 2 -10 -3 -10 -11 0 -62 -103 -68 -139
-3 -14 -12 -36 -20 -48 -8 -13 -12 -23 -8 -23 4 0 1 -7 -6 -15 -7 -8 -9 -15
-5 -15 4 0 2 -7 -5 -15 -6 -8 -9 -19 -6 -24 4 -5 2 -12 -3 -16 -5 -3 -10 -13
-10 -23 0 -9 -2 -30 -6 -47 -8 -41 -8 -237 -1 -304 4 -30 12 -61 18 -68 6 -7
7 -13 2 -13 -4 0 -3 -5 3 -11 6 -6 9 -18 6 -25 -3 -8 0 -14 6 -14 6 0 10 -3
10 -7 -1 -5 -1 -10 1 -13 1 -3 4 -16 6 -30 2 -13 9 -27 15 -31 6 -3 11 -9 10
-12 0 -13 62 -142 70 -145 5 -2 7 -8 3 -13 -3 -5 0 -9 6 -9 6 0 8 -5 5 -10 -3
-6 0 -13 8 -16 7 -2 14 -11 14 -18 0 -17 82 -136 94 -136 6 0 7 -5 4 -10 -3
-6 1 -13 9 -16 9 -3 14 -10 11 -14 -3 -5 3 -15 13 -22 10 -7 24 -23 30 -35 16
-29 202 -184 213 -177 5 3 9 0 9 -7 0 -7 3 -10 6 -7 3 4 24 -2 47 -12 65 -27
80 -33 102 -37 11 -2 27 -6 35 -10 8 -4 26 -8 40 -9 14 -2 48 -6 75 -10 67 -9
166 -9 245 0 109 12 115 13 120 16 6 3 26 6 90 15 25 4 47 9 50 13 7 10 21 12
175 28 77 8 172 22 210 31 88 20 597 31 654 15 20 -6 81 -18 136 -26 170 -24
243 -45 359 -103 61 -30 113 -59 114 -64 5 -14 62 -69 71 -69 4 0 16 -16 27
-35 10 -19 22 -35 27 -35 4 0 6 -4 2 -10 -3 -5 3 -18 14 -29 11 -11 17 -22 14
-25 -3 -3 2 -8 11 -12 9 -3 14 -10 11 -14 -3 -5 5 -16 17 -24 12 -9 19 -16 15
-16 -4 0 20 -27 53 -60 33 -33 63 -60 65 -60 3 0 14 -8 24 -18 39 -35 56 -47
58 -42 1 3 12 -3 23 -13 11 -9 27 -17 35 -17 8 0 15 -5 15 -11 0 -5 4 -8 9 -4
5 3 16 -2 24 -10 9 -8 25 -15 36 -15 12 0 21 -4 21 -9 0 -11 56 -32 64 -24 3
4 6 1 6 -6 0 -7 7 -11 15 -8 8 4 17 2 20 -3 3 -5 12 -7 20 -3 8 3 15 0 15 -5
0 -6 8 -11 18 -11 23 0 54 -6 72 -13 19 -8 22 -8 165 -9 108 -1 156 3 220 15
11 2 20 4 20 5 0 2 11 4 25 7 14 2 34 8 45 13 32 14 58 24 80 28 11 2 22 8 23
13 2 6 8 8 13 4 5 -3 9 -1 9 4 0 5 15 16 33 23 17 7 57 30 87 51 30 21 63 44
74 51 10 6 29 23 42 37 13 14 28 25 32 25 4 0 32 25 62 55 30 30 46 48 34 40
-11 -8 -2 2 20 24 23 21 41 42 41 47 0 4 9 15 20 24 11 9 13 13 5 9 -9 -4 -7
1 5 14 35 37 44 50 38 56 -3 3 2 8 11 12 9 3 13 10 10 15 -3 5 0 9 5 9 6 0 11
7 11 15 0 8 5 15 11 15 5 0 8 4 5 9 -4 5 -3 11 1 13 10 4 53 86 53 100 0 5 7
16 15 25 8 8 13 19 10 24 -4 5 -2 9 4 9 5 0 13 15 17 33 4 17 9 35 10 40 1 4
2 8 3 10 2 1 4 13 7 27 2 14 7 32 11 40 3 8 7 20 8 25 1 6 3 12 5 15 3 5 4 14
16 90 9 60 9 196 0 240 -4 19 -9 51 -10 70 -2 19 -4 35 -6 35 -1 0 -4 9 -6 20
-2 11 -6 36 -10 55 -3 19 -6 43 -6 52 1 10 -4 20 -9 23 -5 4 -7 11 -3 16 3 5
0 16 -6 24 -6 8 -9 19 -6 24 4 5 2 12 -3 16 -6 3 -8 12 -5 19 3 8 0 17 -5 21
-6 3 -9 10 -6 15 3 5 1 11 -4 15 -6 3 -8 12 -4 20 3 8 0 15 -6 15 -7 0 -11 6
-10 13 4 19 -12 77 -21 77 -4 0 -7 12 -7 27 0 15 -5 29 -11 31 -6 2 -8 10 -5
18 3 8 0 14 -6 14 -6 0 -10 3 -10 8 1 4 1 9 -1 12 -1 3 -4 16 -6 30 -3 14 -9
26 -14 28 -5 2 -6 10 -3 18 3 8 -1 14 -8 14 -7 0 -9 3 -6 7 4 3 2 12 -5 20 -6
7 -8 16 -5 20 4 3 1 15 -5 27 -14 24 -13 21 -23 64 -4 17 -12 32 -17 32 -6 0
-8 6 -5 14 3 8 0 22 -8 32 -7 10 -11 24 -8 31 3 7 1 13 -3 13 -5 0 -10 10 -11
23 0 12 -7 36 -14 52 -7 17 -13 33 -14 38 -2 4 -4 9 -5 12 -1 3 -4 10 -5 15
-1 6 -4 12 -5 15 -1 3 -4 10 -5 15 -1 6 -3 11 -4 13 -2 1 -4 12 -7 25 -2 13
-10 33 -16 45 -7 12 -12 25 -13 29 0 3 -3 10 -7 14 -5 4 -8 18 -8 31 0 13 -5
23 -11 23 -5 0 -7 5 -4 10 3 6 2 10 -3 10 -9 0 -20 29 -29 75 -2 11 -8 22 -13
23 -6 2 -8 8 -4 13 3 5 0 9 -5 9 -6 0 -10 3 -9 8 4 13 -44 122 -54 122 -5 0
-6 5 -3 10 3 6 1 10 -5 10 -6 0 -8 5 -5 10 3 6 1 10 -5 10 -6 0 -8 5 -5 10 3
6 1 10 -5 10 -6 0 -9 4 -6 9 3 5 -1 14 -9 21 -8 7 -12 16 -9 21 3 5 0 9 -6 9
-6 0 -8 5 -5 10 3 6 1 10 -5 10 -6 0 -8 5 -5 10 3 6 1 10 -5 10 -6 0 -8 5 -5
10 3 6 1 10 -5 10 -6 0 -8 5 -5 10 3 6 2 10 -4 10 -5 0 -17 20 -27 45 -9 25
-20 45 -24 45 -4 0 -15 20 -24 45 -10 25 -22 45 -27 45 -6 0 -8 4 -4 10 3 5
-3 18 -14 29 -11 11 -17 22 -13 25 3 3 0 6 -7 6 -7 0 -9 5 -6 10 3 6 1 10 -4
10 -6 0 -11 7 -11 15 0 8 -5 15 -11 15 -5 0 -7 5 -4 10 3 6 1 10 -4 10 -6 0
-11 7 -11 15 0 8 -5 15 -11 15 -5 0 -7 5 -4 10 3 6 1 10 -4 10 -6 0 -11 7 -11
15 0 8 -4 15 -10 15 -5 0 -12 11 -16 25 -3 14 -10 25 -15 25 -5 0 -9 7 -9 15
0 8 -3 15 -8 15 -4 0 -16 17 -27 38 -24 44 -30 53 -70 94 -16 17 -23 27 -15
22 8 -4 -23 30 -69 77 -46 46 -88 83 -93 81 -5 -1 -7 2 -4 7 3 5 -2 15 -11 22
-14 12 -16 12 -9 -1 4 -8 -4 -2 -18 13 -14 15 -26 25 -26 21 0 -3 -9 4 -20 17
-10 13 -19 21 -20 17 0 -5 -9 0 -19 10 -38 34 -49 41 -55 35 -3 -4 -6 -1 -6 5
0 7 -7 12 -15 12 -8 0 -15 5 -15 11 0 5 -4 7 -10 4 -5 -3 -10 -1 -10 4 0 6 -7
11 -15 11 -8 0 -15 5 -15 11 0 5 -4 8 -9 4 -5 -3 -15 0 -23 7 -7 7 -20 14 -28
16 -8 2 -16 8 -18 13 -2 5 -14 9 -27 9 -13 0 -30 7 -39 15 -8 8 -25 17 -38 19
-13 3 -23 5 -23 6 0 1 -13 4 -30 6 -16 3 -33 10 -36 16 -4 6 -12 7 -18 4 -6
-4 -11 -3 -11 3 0 6 -7 8 -15 5 -8 -4 -21 -1 -28 5 -8 6 -36 13 -63 16 -27 2
-69 7 -94 10 -63 8 -339 13 -346 6z"/>
</g>
</svg>
